<?xml version="1.0" encoding="utf-8"?>
<!-- Generator: Adobe Illustrator 19.1.0, SVG Export Plug-In . SVG Version: 6.00 Build 0)  -->
<svg version="1.1" id="Layer_1" xmlns="http://www.w3.org/2000/svg" xmlns:xlink="http://www.w3.org/1999/xlink" x="0px" y="0px"
	 viewBox="0 0 654.1 127" style="enable-background:new 0 0 654.1 127;" xml:space="preserve">
<style type="text/css">
	.st0{fill:#FFFFFF;}
</style>
<g>
	<rect x="266.5" y="48.1" class="st0" width="2.4" height="2.4"/>
	<rect x="421.6" y="48.1" class="st0" width="2.4" height="2.4"/>
	<g>
		<polygon class="st0" points="301.7,84.6 301.7,69.2 301.7,69 301.7,68.5 302.1,68.5 302.4,68.5 316.5,68.5 316.5,66.4 302.4,66.4 
			302.1,66.4 301.7,66.4 301.7,66 301.7,65.8 301.7,50.9 301.7,50.7 301.7,50.2 302.1,50.2 302.4,50.2 317.7,50.2 317.7,48.1 
			299.2,48.1 299.2,87.4 318.6,87.4 318.6,85.3 302.4,85.3 302.1,85.3 301.7,85.3 301.7,84.8 		"/>
		<polygon class="st0" points="351.9,84.6 351.9,48.1 349.4,48.1 349.4,87.4 368.2,87.4 368.2,85.3 352.5,85.3 352.3,85.3 
			351.9,85.3 351.9,84.8 		"/>
		<polygon class="st0" points="255,70 255.2,69.7 255.5,69.1 255.9,69.7 256.1,70 267.1,87.4 270.1,87.4 257.2,67.2 251.9,58.9 
			251.7,58.5 251.3,57.8 251.3,57.8 245.1,48.1 242.2,48.1 253.9,66.5 253.9,66.6 254.1,66.8 253.9,67.1 253.9,67.2 241,87.4 
			243.9,87.4 		"/>
		<path class="st0" d="M159.5,71.6h5.6c2.2,0,4.1-0.3,5.8-0.9c1.7-0.6,3.1-1.5,4.3-2.6c1.2-1.1,2.1-2.4,2.7-3.9
			c0.6-1.5,0.9-3.2,0.9-5c0-1.8-0.3-3.4-0.8-4.7c-0.5-1.4-1.4-2.5-2.4-3.4c-1.1-0.9-2.4-1.7-3.9-2.2c-1.6-0.5-3.4-0.8-5.5-0.8h-9.8
			v39.3h2.4V72.2V72v-0.4h0.4H159.5z M158.9,69v-0.2V50.9v-0.2v-0.4h0.4h0.2h6c7,0,10.7,3.2,10.7,9.2c0,3.1-1,5.6-2.9,7.4
			c-1.9,1.7-4.8,2.6-8.4,2.6h-5.4h-0.2h-0.4V69z"/>
		<polygon class="st0" points="417,65.8 417,61.5 417,61.3 417,60.9 417.4,60.9 417.6,60.9 431.1,60.9 431.1,58.8 414.5,58.8 
			414.5,77.7 431.1,77.7 431.1,75.6 417.6,75.6 417.4,75.6 417,75.6 417,75.1 417,74.9 417,69.2 417,69 417,68.5 417.4,68.5 
			417.6,68.5 430.8,68.5 430.8,66.4 417.6,66.4 417.4,66.4 417,66.4 417,66 		"/>
		<rect x="209.5" y="48.1" class="st0" width="2.4" height="39.3"/>
		<polygon class="st0" points="564.5,57.1 564.5,88.4 566.9,88.4 566.9,60.1 		"/>
		<rect x="528.8" y="48.1" class="st0" width="2.4" height="39.3"/>
		<polygon class="st0" points="629.9,84.6 629.9,69.2 629.9,69 629.9,68.5 630.3,68.5 630.5,68.5 644.7,68.5 644.7,66.4 630.5,66.4 
			630.3,66.4 629.9,66.4 629.9,66 629.9,65.8 629.9,50.9 629.9,50.7 629.9,50.2 630.3,50.2 630.5,50.2 645.9,50.2 645.9,48.1 
			627.4,48.1 627.4,87.4 646.8,87.4 646.8,85.3 630.5,85.3 630.3,85.3 629.9,85.3 629.9,84.8 		"/>
		<polygon class="st0" points="590.8,83.7 593.8,87.2 593.8,49 591.4,49 591.4,78.5 591.4,79.1 591.4,80.3 590.6,79.4 590.2,79 
			588.4,76.8 564.4,49.2 564.5,52.8 		"/>
		<polygon class="st0" points="483.3,84.6 483.3,48.1 480.8,48.1 480.8,87.4 499.6,87.4 499.6,85.3 483.9,85.3 483.7,85.3 
			483.3,85.3 483.3,84.8 		"/>
		<rect x="421.6" y="84" class="st0" width="2.4" height="2.4"/>
		<g>
			<path class="st0" d="M51.9,57.4L33.1,46.5v10.1l9.7,5.7c0,0,0.1,0,0.1,0.1c0.2,0.2,0.4,0.5,0.3,0.7c0,0.3-0.2,0.5-0.4,0.6
				l-9.7,5.7v22.8l8.5,5V74.8c0-0.3,0.2-0.5,0.4-0.7l0,0c0,0,0,0,0,0c0,0,0,0,0,0l0,0c0,0,0,0,0,0l9.7-5.7V57.4z"/>
			<path class="st0" d="M62,52.4l-8.6,5v11.4c0,0,0,0.1,0,0.1c0,0.3-0.2,0.6-0.5,0.7l-9.7,5.6v21.9l8.6-5V80.8c0-0.1,0-0.3,0.1-0.4
				c0.1-0.2,0.3-0.4,0.5-0.5l9.6-5.6V52.4z"/>
			<path class="st0" d="M82.3,87l-9.7-5.7c-0.3-0.2-0.4-0.5-0.4-0.8V57.4l-8.6-5v33.9l18.7,10.9V87z"/>
			<path class="st0" d="M73,56l8.6-5L62.8,40.1l-9.7,5.7c0,0,0,0,0,0c-0.2,0.1-0.6,0.1-0.8,0l-9.7-5.7l-8.6,5L52.7,56l9.6-5.6
				c0.3-0.2,0.6-0.3,0.9-0.1L73,56z"/>
			<path class="st0" d="M91.7,80.7l-8.9-5.2c-0.2-0.1-0.4-0.4-0.4-0.7V52.4l-8.6,5v22.8l9.3,5.4L91.7,80.7z"/>
			<path class="st0" d="M60.4,12.2c-31,0-56,25.1-56,56s25.1,56,56,56s56-25.1,56-56S91.4,12.2,60.4,12.2z M94.1,80.7v11.9
				c0,0.3-0.2,0.5-0.4,0.7l-10.1,5.9c-0.1,0.1-0.3,0.1-0.4,0.1l0,0c-0.1,0-0.3,0-0.4-0.1L62.4,87.4C62.2,87.3,62,87,62,86.7V76.1
				l-8.6,5v11.5c0,0.3-0.2,0.6-0.5,0.8l-10,5.9c-0.2,0.1-0.6,0.1-0.8,0L32,93.3c0,0-0.1,0-0.1-0.1h0c-0.2-0.1-0.3-0.4-0.3-0.6h0
				V68.9c0-0.3,0.2-0.5,0.4-0.7l9-5.2L32,57.7c-0.2-0.1-0.4-0.3-0.5-0.5c0-0.1,0-0.2,0-0.2h0V45.1c0-0.1,0-0.2,0-0.3c0,0,0,0,0,0
				c0,0,0-0.1,0.1-0.1c0,0,0.1-0.1,0.1-0.1c0-0.1,0.1-0.1,0.2-0.1l10.2-5.9l0,0c0.3-0.2,0.6-0.1,0.9,0l9.7,5.7l9.8-5.7
				c0.2-0.1,0.6-0.1,0.8,0l0,0l20.3,11.8c0.2,0.1,0.4,0.4,0.4,0.7v23.3l9.7,5.7C93.9,80.1,94.1,80.4,94.1,80.7
				C94.1,80.7,94.1,80.7,94.1,80.7z"/>
			<polygon class="st0" points="83.9,87 83.9,97.2 92.5,92.2 92.5,82 			"/>
		</g>
	</g>
</g>
</svg>
