<?xml version="1.0" encoding="utf-8"?>
<!-- Generator: Adobe Illustrator 17.1.0, SVG Export Plug-In . SVG Version: 6.00 Build 0)  -->
<!DOCTYPE svg PUBLIC "-//W3C//DTD SVG 1.1//EN" "http://www.w3.org/Graphics/SVG/1.1/DTD/svg11.dtd">
<svg version="1.1" id="Layer_1" xmlns="http://www.w3.org/2000/svg" xmlns:xlink="http://www.w3.org/1999/xlink" x="0px" y="0px"
	 viewBox="0 0 263.333 54.088" enable-background="new 0 0 263.333 54.088" xml:space="preserve">
<g>
	<path fill="#FFFFFF" d="M96.226,40.674c-0.115,0.231-0.346,0.231-0.461,0L83.475,14.29h7.451l5.338,12.174l5.185-12.174h7.105
		L96.226,40.674z"/>
	<polygon fill="#FFFFFF" points="137.502,29.632 137.502,40.405 131.371,40.405 131.371,29.547 121.609,14.392 129.46,14.392 
		134.466,22.857 139.413,14.392 147.264,14.392 	"/>
	<polygon fill="#FFFFFF" points="214.904,29.632 214.904,40.405 208.773,40.405 208.773,29.547 199.011,14.392 206.862,14.392 
		211.868,22.857 216.815,14.392 224.666,14.392 	"/>
	<polygon fill="#FFFFFF" points="184.646,40.405 179.289,40.405 167.622,22.785 167.622,40.405 161.55,40.405 161.55,14.392 
		170.3,14.392 178.515,26.893 178.515,14.392 184.646,14.392 	"/>
	<polygon fill="#FFFFFF" points="245.242,34.869 256.671,34.869 256.671,40.405 239.052,40.405 239.052,14.392 245.242,14.392 	"/>
	<polygon fill="#FFFFFF" points="34.405,33.559 14.122,13.193 6.662,20.652 34.405,48.395 62.147,20.652 54.688,13.193 	"/>
	<polygon fill="#FFFFFF" points="47.086,5.693 34.341,18.438 21.597,5.693 	"/>
	<path fill="#FFFFFF" d="M59.908,6.317v0.05c0,0.066-0.018,0.094-0.062,0.094h-0.594v1.896c0,0.044-0.038,0.069-0.125,0.069h-0.025
		c-0.088,0-0.126-0.025-0.126-0.069V6.461h-0.602c-0.044,0-0.063-0.028-0.063-0.094v-0.05c0-0.066,0.019-0.094,0.063-0.094h1.472
		C59.89,6.223,59.908,6.251,59.908,6.317"/>
	<path fill="#FFFFFF" d="M62.571,6.285v2.071c0,0.044-0.038,0.069-0.126,0.069h-0.022c-0.088,0-0.125-0.025-0.125-0.069V6.668
		l-0.007,0.013l-0.624,1.086c-0.015,0.028-0.034,0.04-0.069,0.04h-0.125c-0.032,0-0.054-0.012-0.069-0.04l-0.635-1.105l-0.006-0.013
		v1.707c0,0.044-0.037,0.069-0.125,0.069h-0.022c-0.088,0-0.126-0.025-0.126-0.069V6.285c0-0.044,0.038-0.069,0.126-0.069h0.113
		c0.075,0,0.113,0.022,0.131,0.057l0.594,1.029L61.535,7.5l0.082-0.179l0.593-1.048c0.019-0.035,0.056-0.057,0.132-0.057h0.103
		C62.533,6.216,62.571,6.241,62.571,6.285"/>
</g>
</svg>
